<svg width="61" height="61" viewBox="0 0 61 61" fill="none" xmlns="http://www.w3.org/2000/svg">
<g clip-path="url(#clip0_318_6)">
<path d="M48 26C51.3137 26 54 23.3137 54 20C54 16.6863 51.3137 14 48 14C44.6863 14 42 16.6863 42 20C42 23.3137 44.6863 26 48 26Z" fill="#004073"/>
<path d="M28.6548 8.36364H37.7741V38.7898C37.7741 41.6023 37.142 44.0455 35.8778 46.1193C34.6278 48.1932 32.8878 49.7912 30.6577 50.9134C28.4276 52.0355 25.8352 52.5966 22.8807 52.5966C20.2528 52.5966 17.8665 52.1349 15.7216 51.2116C13.5909 50.2741 11.9006 48.8537 10.6506 46.9503C9.40057 45.0327 8.78267 42.625 8.79688 39.7273H17.9801C18.0085 40.8778 18.2429 41.8651 18.6832 42.6889C19.1378 43.4986 19.7557 44.1236 20.5369 44.5639C21.3324 44.9901 22.2699 45.2031 23.3494 45.2031C24.4858 45.2031 25.4446 44.9616 26.2259 44.4787C27.0213 43.9815 27.625 43.2571 28.0369 42.3054C28.4489 41.3537 28.6548 40.1818 28.6548 38.7898V8.36364Z" fill="#111827"/>
</g>
<defs>
<clipPath id="clip0_318_6">
<rect width="61" height="61" fill="white"/>
</clipPath>
</defs>
</svg>
