<svg width="31" height="31" viewBox="0 0 31 31" fill="none" xmlns="http://www.w3.org/2000/svg">
<g clip-path="url(#clip0_138_21)">
<path d="M21 6.5C21 9.53757 18.5376 12 15.5 12C12.4624 12 10 9.53757 10 6.5C10 3.46243 12.4624 1 15.5 1C18.5376 1 21 3.46243 21 6.5Z" stroke="#0D4979" stroke-width="1.8"/>
<path d="M29.3921 19.6562C27.4892 25.7337 21.9744 30.0999 15.4992 30.0999C9.02401 30.0999 3.50923 25.7337 1.60635 19.6562C1.29909 18.6749 1.56548 17.7706 2.19397 17.0801C2.83684 16.3738 3.86056 15.8999 4.99922 15.8999H25.9992C27.1379 15.8999 28.1616 16.3738 28.8044 17.0801C29.4329 17.7706 29.6993 18.6749 29.3921 19.6562Z" stroke="#0D4979" stroke-width="1.8"/>
</g>
<defs>
<clipPath id="clip0_138_21">
<rect width="31" height="31" fill="white"/>
</clipPath>
</defs>
</svg>
